<svg width="23" height="25" viewBox="0 0 23 25" fill="none" xmlns="http://www.w3.org/2000/svg">
<path d="M0 18.6183C0 19.6109 0.740622 20.2662 1.95937 20.2662H6.78234C6.87609 22.5194 8.70679 24.5653 11.363 24.5653C14.0308 24.5653 15.8615 22.5291 15.9553 20.2662H20.7783C21.9874 20.2662 22.7376 19.6109 22.7376 18.6183C22.7376 17.3726 21.5887 16.3052 20.5366 15.2812C19.7104 14.4748 19.5101 12.8592 19.3594 11.2458C19.2056 6.80578 17.9196 3.84399 14.8551 2.74008C14.4082 1.1775 13.1142 0 11.363 0C9.62343 0 8.31983 1.1775 7.88249 2.74008C4.81804 3.84399 3.53202 6.80578 3.37828 11.2458C3.22758 12.8592 3.02719 14.4748 2.20102 15.2812C1.1393 16.3052 0 17.3726 0 18.6183ZM2.79654 18.1233V17.9869C3.09607 17.6534 3.7781 17.0252 4.35373 16.3666C5.16162 15.4418 5.54107 13.755 5.66342 11.531C5.79513 6.77061 7.2574 5.18811 9.1453 4.67108C9.42983 4.60288 9.59389 4.46858 9.61616 4.1428C9.6703 2.95358 10.3376 2.15084 11.363 2.15084C12.4001 2.15084 13.0577 2.95358 13.1215 4.1428C13.1437 4.46858 13.2982 4.60288 13.5827 4.67108C15.4802 5.18811 16.9425 6.77061 17.0742 11.531C17.1966 13.755 17.5823 15.4418 18.3743 16.3666C18.9574 17.0252 19.6066 17.6534 19.9083 17.9869V18.1233H2.79654ZM8.99225 20.2662H13.7454C13.6559 21.7439 12.6987 22.6852 11.363 22.6852C10.039 22.6852 9.07217 21.7439 8.99225 20.2662Z" fill="black"/>
</svg>
