<svg width="24" height="24" viewBox="0 0 24 24" fill="none" xmlns="http://www.w3.org/2000/svg">
<path d="M1.14421 7.83303C1.89608 7.83303 2.29592 7.41186 2.29592 6.66749V4.01999C2.29592 2.88139 2.88772 2.31936 3.97733 2.31936H6.6846C7.44069 2.31936 7.85014 1.9078 7.85014 1.16554C7.85014 0.423278 7.44069 0.0234375 6.6846 0.0234375H3.84421C1.31484 0.0234375 0 1.31695 0 3.8196V6.66749C0 7.41397 0.41156 7.83303 1.14421 7.83303ZM22.0657 7.83303C22.8176 7.83303 23.2174 7.41397 23.2174 6.66749V3.8196C23.2174 1.31695 21.9047 0.0234375 19.3732 0.0234375H16.5232C15.7788 0.0234375 15.3673 0.423278 15.3673 1.16554C15.3673 1.9078 15.7809 2.31936 16.5232 2.31936H19.2305C20.3105 2.31936 20.9215 2.88139 20.9215 4.01999V6.66749C20.9215 7.41397 21.333 7.83303 22.0657 7.83303ZM3.84421 23.2312H6.6846C7.44069 23.2312 7.85014 22.8197 7.85014 22.087C7.85014 21.3448 7.43647 20.9353 6.6846 20.9353H3.97733C2.88772 20.9353 2.29592 20.3733 2.29592 19.2326V16.5851C2.29592 15.8311 1.88647 15.4195 1.14421 15.4195C0.399841 15.4195 0 15.8311 0 16.5851V19.4255C0 21.9356 1.31484 23.2312 3.84421 23.2312ZM16.5232 23.2312H19.3732C21.9047 23.2312 23.2174 21.926 23.2174 19.4255V16.5851C23.2174 15.8311 22.808 15.4195 22.0657 15.4195C21.3234 15.4195 20.9215 15.8332 20.9215 16.5851V19.2326C20.9215 20.3733 20.3105 20.9353 19.2305 20.9353H16.5232C15.7788 20.9353 15.3673 21.3448 15.3673 22.087C15.3673 22.8197 15.7788 23.2312 16.5232 23.2312Z" fill="black"/>
<path d="M6.19873 11.6215C6.19873 12.259 6.6574 12.7101 7.30779 12.7101H10.5211V15.933C10.5211 16.5759 10.9648 17.0325 11.6002 17.0325C12.2569 17.0325 12.708 16.5759 12.708 15.933V12.7101H15.9309C16.5738 12.7101 17.0304 12.259 17.0304 11.6215C17.0304 10.9744 16.5834 10.5136 15.9309 10.5136H12.708V7.30026C12.708 6.64776 12.2569 6.20081 11.6002 6.20081C10.9648 6.20081 10.5211 6.64776 10.5211 7.30026V10.5136H7.30779C6.64779 10.5136 6.19873 10.9744 6.19873 11.6215Z" fill="black"/>
</svg>
